<svg width="37.000000" height="29.000000" viewBox="0 0 37 29" fill="none" xmlns="http://www.w3.org/2000/svg" xmlns:xlink="http://www.w3.org/1999/xlink">
	<desc>
			Created with Pixso.
	</desc>
	<defs/>
	<path d="M35.4585 26L1.5415 26C0.69043 26 0 26.6721 0 27.5C0 28.3279 0.69043 29 1.5415 29L35.4585 29C36.3096 29 37 28.3279 37 27.5C37 26.6721 36.3096 26 35.4585 26Z" fill="#000000" fill-opacity="1.000000" fill-rule="nonzero"/>
	<path d="M35.5 0L14.5 0C13.6719 0 13 0.672119 13 1.5C13 2.32788 13.6719 3 14.5 3L35.5 3C36.3281 3 37 2.32788 37 1.5C37 0.672119 36.3281 0 35.5 0Z" fill="#000000" fill-opacity="1.000000" fill-rule="nonzero"/>
	<path d="M35.4585 9L1.5415 9C0.69043 9 0 9.67212 0 10.5C0 11.3279 0.69043 12 1.5415 12L35.4585 12C36.3096 12 37 11.3279 37 10.5C37 9.67212 36.3096 9 35.4585 9Z" fill="#000000" fill-opacity="1.000000" fill-rule="nonzero"/>
	<path d="M35.5 18L14.5 18C13.6719 18 13 18.6721 13 19.5C13 20.3279 13.6719 21 14.5 21L35.5 21C36.3281 21 37 20.3279 37 19.5C37 18.6721 36.3281 18 35.5 18Z" fill="#000000" fill-opacity="1.000000" fill-rule="nonzero"/>
</svg>
