<svg width="26.000000" height="26.000000" viewBox="0 0 26 26" fill="none" xmlns="http://www.w3.org/2000/svg" xmlns:xlink="http://www.w3.org/1999/xlink">
	<desc>
			Created with Pixso.
	</desc>
	<defs/>
	<path d="M14.43 13L25.7 1.73C26.09 1.33 26.09 0.69 25.7 0.29C25.3 -0.1 24.66 -0.1 24.26 0.29L13 11.56L1.73 0.29C1.33 -0.1 0.69 -0.1 0.29 0.29C-0.1 0.69 -0.1 1.33 0.29 1.73L11.56 13L0.29 24.26C-0.1 24.66 -0.1 25.3 0.29 25.7C0.49 25.9 0.75 26 1.01 26C1.27 26 1.53 25.9 1.73 25.7L13 14.43L24.26 25.7C24.46 25.9 24.72 26 24.98 26C25.24 26 25.5 25.9 25.7 25.7C26.09 25.3 26.09 24.66 25.7 24.26L14.43 13Z" fill="#363838" fill-opacity="1.000000" fill-rule="evenodd"/>
</svg>
