<svg width="15.500000" height="15.500000" viewBox="0 0 15.5 15.5" fill="none" xmlns="http://www.w3.org/2000/svg" xmlns:xlink="http://www.w3.org/1999/xlink">
	<desc>
			Created with Pixso.
	</desc>
	<defs/>
	<path d="M15.5 7.75C15.5 12.0312 12.0312 15.5 7.75 15.5C6.9375 15.5 6.15625 15.4062 5.4375 15.1562C5.75 14.6562 6.21875 13.8125 6.40625 13.125C6.5 12.7812 6.875 11.2812 6.875 11.2812C7.125 11.7812 7.875 12.1875 8.65625 12.1875C11 12.1875 12.6875 10.0312 12.6875 7.375C12.6875 4.8125 10.5938 2.875 7.90625 2.875C4.5625 2.875 2.78125 5.125 2.78125 7.5625C2.78125 8.71875 3.375 10.125 4.34375 10.5938C4.5 10.6562 4.59375 10.625 4.625 10.4688C4.625 10.375 4.78125 9.84375 4.84375 9.59375C4.84375 9.53125 4.84375 9.4375 4.78125 9.375C4.46875 9 4.21875 8.28125 4.21875 7.59375C4.21875 5.90625 5.5 4.25 7.71875 4.25C9.59375 4.25 10.9375 5.53125 10.9375 7.40625C10.9375 9.5 9.875 10.9375 8.5 10.9375C7.75 10.9375 7.1875 10.3125 7.34375 9.5625C7.5625 8.625 8 7.625 8 6.96875C8 6.375 7.6875 5.875 7.03125 5.875C6.25 5.875 5.625 6.6875 5.625 7.75C5.625 8.4375 5.84375 8.90625 5.84375 8.90625C5.84375 8.90625 5.09375 12.1562 4.9375 12.75C4.78125 13.4375 4.84375 14.375 4.90625 14.9688C2.03125 13.8438 0 11.0625 0 7.75C0 3.46875 3.46875 0 7.75 0C12.0312 0 15.5 3.46875 15.5 7.75Z" fill="#707070" fill-opacity="1.000000" fill-rule="evenodd"/>
</svg>
