<svg width="80.000000" height="80.000000" viewBox="0 0 80 80" fill="none" xmlns="http://www.w3.org/2000/svg" xmlns:xlink="http://www.w3.org/1999/xlink">
	<desc>
			Created with Pixso.
	</desc>
	<defs>
		<filter id="filter_91_47_dd" x="26.750000" y="21.343018" width="36.250000" height="40.313965" filterUnits="userSpaceOnUse" color-interpolation-filters="sRGB">
			<feFlood flood-opacity="0" result="BackgroundImageFix"/>
			<feColorMatrix in="SourceAlpha" type="matrix" values="0 0 0 0 0 0 0 0 0 0 0 0 0 0 0 0 0 0 127 0" result="hardAlpha"/>
			<feOffset dx="0" dy="1"/>
			<feGaussianBlur stdDeviation="1.33333"/>
			<feComposite in2="hardAlpha" operator="out" k2="-1" k3="1"/>
			<feColorMatrix type="matrix" values="0 0 0 0 0 0 0 0 0 0 0 0 0 0 0 0 0 0 0.85 0"/>
			<feBlend mode="normal" in2="BackgroundImageFix" result="effect_dropShadow_1"/>
			<feBlend mode="normal" in="SourceGraphic" in2="effect_dropShadow_1" result="shape"/>
		</filter>
	</defs>
	<path d="M40 80C62.09 80 80 62.09 80 40C80 17.9 62.09 0 40 0C17.9 0 0 17.9 0 40C0 62.09 17.9 80 40 80Z" fill="#363838" fill-opacity="0.400000" fill-rule="evenodd"/>
	<path d="M80 40C80 17.9 62.09 0 40 0C17.9 0 0 17.9 0 40C0 62.09 17.9 80 40 80C62.09 80 80 62.09 80 40Z" stroke="#979797" stroke-opacity="0" stroke-width="0.000000"/>
	<g filter="url(#filter_91_47_dd)">
		<path d="M58.5 41.36L32.25 56.52C31.58 56.9 30.75 56.42 30.75 55.65L30.75 25.34C30.75 24.57 31.58 24.09 32.25 24.47L58.5 39.63C59.16 40.01 59.16 40.98 58.5 41.36Z" fill="#FFFFFF" fill-opacity="0.930000" fill-rule="evenodd"/>
	</g>
</svg>
