<svg width="17.000000" height="17.000000" viewBox="0 0 17 17" fill="none" xmlns="http://www.w3.org/2000/svg" xmlns:xlink="http://www.w3.org/1999/xlink">
	<desc>
			Created with Pixso.
	</desc>
	<defs/>
	<path d="M16.7922 15.7908L11.9579 10.9565C12.8944 9.7998 13.4581 8.33008 13.4581 6.72925C13.4581 3.01904 10.4393 0 6.72913 0C3.01892 0 0 3.0188 0 6.72925C0 10.4395 3.01892 13.4583 6.72913 13.4583C8.32996 13.4583 9.79968 12.8945 10.9564 11.958L15.7906 16.7925C15.9288 16.9307 16.1101 17 16.2915 17C16.4729 17 16.6542 16.9307 16.7922 16.7925C17.0692 16.5154 17.0692 16.0679 16.7922 15.7908ZM1.41663 6.72925C1.41663 9.65894 3.79944 12.0417 6.72913 12.0417C9.65869 12.0417 12.0415 9.65894 12.0415 6.72925C12.0415 3.79956 9.65869 1.41675 6.72913 1.41675C3.79944 1.41675 1.41663 3.79956 1.41663 6.72925Z" clip-rule="evenodd" fill="#5A5A5A" fill-opacity="1.000000" fill-rule="evenodd"/>
</svg>
